<mxfile host="app.diagrams.net" agent="Mozilla/5.0 (Macintosh; Intel Mac OS X 10_15_7) AppleWebKit/537.36 (KHTML, like Gecko) Chrome/132.0.0.0 Safari/537.36" version="26.0.16">
  <diagram name="Page-1" id="ksyS-uuuY5QstzGH3zKv">
    <mxGraphModel dx="954" dy="639" grid="1" gridSize="10" guides="1" tooltips="1" connect="1" arrows="1" fold="1" page="1" pageScale="1" pageWidth="827" pageHeight="1169" math="0" shadow="0">
      <root>
        <mxCell id="0" />
        <mxCell id="1" parent="0" />
        <mxCell id="sc3gT8oohrM-DyhVzy3Q-3" value="Office Router" style="sketch=0;aspect=fixed;pointerEvents=1;shadow=0;dashed=0;html=1;strokeColor=none;labelPosition=center;verticalLabelPosition=bottom;verticalAlign=top;align=center;fillColor=#00188D;shape=mxgraph.mscae.enterprise.router" vertex="1" parent="1">
          <mxGeometry x="270" y="80" width="50" height="39" as="geometry" />
        </mxCell>
        <mxCell id="sc3gT8oohrM-DyhVzy3Q-4" value="Main Switch" style="image;html=1;image=img/lib/clip_art/networking/Switch_128x128.png" vertex="1" parent="1">
          <mxGeometry x="254" y="190" width="80" height="80" as="geometry" />
        </mxCell>
        <mxCell id="sc3gT8oohrM-DyhVzy3Q-5" value="" style="endArrow=none;html=1;rounded=0;" edge="1" parent="1">
          <mxGeometry width="50" height="50" relative="1" as="geometry">
            <mxPoint x="292.99703785463174" y="201.31" as="sourcePoint" />
            <mxPoint x="294" y="150" as="targetPoint" />
            <Array as="points">
              <mxPoint x="294" y="150" />
            </Array>
          </mxGeometry>
        </mxCell>
        <mxCell id="sc3gT8oohrM-DyhVzy3Q-8" value="Employee&amp;nbsp;&lt;div&gt;&lt;br&gt;&lt;/div&gt;&lt;div&gt;PC1&lt;/div&gt;" style="verticalLabelPosition=bottom;sketch=0;aspect=fixed;html=1;verticalAlign=top;strokeColor=none;align=center;outlineConnect=0;shape=mxgraph.citrix.desktop;" vertex="1" parent="1">
          <mxGeometry x="25" y="340" width="89" height="98" as="geometry" />
        </mxCell>
        <mxCell id="sc3gT8oohrM-DyhVzy3Q-9" value="" style="endArrow=classic;html=1;rounded=0;endFill=1;" edge="1" parent="1">
          <mxGeometry width="50" height="50" relative="1" as="geometry">
            <mxPoint x="230" y="220" as="sourcePoint" />
            <mxPoint x="50" y="320" as="targetPoint" />
            <Array as="points">
              <mxPoint x="50" y="220" />
            </Array>
          </mxGeometry>
        </mxCell>
        <mxCell id="sc3gT8oohrM-DyhVzy3Q-10" value="" style="endArrow=classic;html=1;rounded=0;endFill=1;" edge="1" parent="1">
          <mxGeometry width="50" height="50" relative="1" as="geometry">
            <mxPoint x="370" y="218" as="sourcePoint" />
            <mxPoint x="510" y="318" as="targetPoint" />
            <Array as="points">
              <mxPoint x="510" y="218" />
            </Array>
          </mxGeometry>
        </mxCell>
        <mxCell id="sc3gT8oohrM-DyhVzy3Q-11" value="" style="endArrow=classic;html=1;rounded=0;endFill=1;" edge="1" parent="1">
          <mxGeometry width="50" height="50" relative="1" as="geometry">
            <mxPoint x="290" y="300" as="sourcePoint" />
            <mxPoint x="290" y="320" as="targetPoint" />
          </mxGeometry>
        </mxCell>
        <mxCell id="sc3gT8oohrM-DyhVzy3Q-12" value="" style="endArrow=classic;html=1;rounded=0;endFill=1;" edge="1" parent="1">
          <mxGeometry width="50" height="50" relative="1" as="geometry">
            <mxPoint x="294.5" y="80" as="sourcePoint" />
            <mxPoint x="294.5" y="40" as="targetPoint" />
            <Array as="points">
              <mxPoint x="294.5" y="80" />
            </Array>
          </mxGeometry>
        </mxCell>
        <mxCell id="sc3gT8oohrM-DyhVzy3Q-13" value="Internet" style="edgeLabel;html=1;align=center;verticalAlign=middle;resizable=0;points=[];" vertex="1" connectable="0" parent="sc3gT8oohrM-DyhVzy3Q-12">
          <mxGeometry x="0.25" y="3" relative="1" as="geometry">
            <mxPoint x="4" y="-32" as="offset" />
          </mxGeometry>
        </mxCell>
        <mxCell id="sc3gT8oohrM-DyhVzy3Q-14" value="Employee&amp;nbsp;&lt;div&gt;&lt;br&gt;&lt;/div&gt;&lt;div&gt;PC2&lt;/div&gt;" style="verticalLabelPosition=bottom;sketch=0;aspect=fixed;html=1;verticalAlign=top;strokeColor=none;align=center;outlineConnect=0;shape=mxgraph.citrix.desktop;" vertex="1" parent="1">
          <mxGeometry x="260" y="341" width="89" height="98" as="geometry" />
        </mxCell>
        <mxCell id="sc3gT8oohrM-DyhVzy3Q-15" value="Employee&amp;nbsp;&lt;div&gt;&lt;br&gt;&lt;/div&gt;&lt;div&gt;PC3&lt;/div&gt;" style="verticalLabelPosition=bottom;sketch=0;aspect=fixed;html=1;verticalAlign=top;strokeColor=none;align=center;outlineConnect=0;shape=mxgraph.citrix.desktop;" vertex="1" parent="1">
          <mxGeometry x="480" y="342" width="89" height="98" as="geometry" />
        </mxCell>
      </root>
    </mxGraphModel>
  </diagram>
</mxfile>
